0
SECTION
2
HEADER
9
$INSUNITS
70
4
9
$ACADVER
1
AC1014
9
$HANDSEED
5
FFFF
0
ENDSEC
0
SECTION
2
TABLES
0
TABLE
2
VPORT
5
8
100
AcDbSymbolTable
0
ENDTAB
0
TABLE
2
LTYPE
5
5
100
AcDbSymbolTable
0
LTYPE
5
14
100
AcDbSymbolTableRecord
100
AcDbLinetypeTableRecord
2
BYBLOCK
70
0
0
LTYPE
5
15
100
AcDbSymbolTableRecord
100
AcDbLinetypeTableRecord
2
BYLAYER
70
0
0
ENDTAB
0
TABLE
2
LAYER
5
2
100
AcDbSymbolTable
70
2
0
LAYER
5
50
100
AcDbSymbolTableRecord
100
AcDbLayerTableRecord
2
0
70
0
6
CONTINUOUS
0
ENDTAB
0
TABLE
2
STYLE
5
3
100
AcDbSymbolTable
70
1
0
STYLE
5
11
100
AcDbSymbolTableRecord
100
AcDbTextStyleTableRecord
2
STANDARD
70
0
0
ENDTAB
0
TABLE
2
VIEW
5
6
100
AcDbSymbolTable
70
0
0
ENDTAB
0
TABLE
2
UCS
5
7
100
AcDbSymbolTable
70
0
0
ENDTAB
0
TABLE
2
APPID
5
9
100
AcDbSymbolTable
70
2
0
APPID
5
12
100
AcDbSymbolTableRecord
100
AcDbRegAppTableRecord
2
ACAD
70
0
0
ENDTAB
0
TABLE
2
DIMSTYLE
5
A
100
AcDbSymbolTable
70
1
0
ENDTAB
0
TABLE
2
BLOCK_RECORD
5
1
100
AcDbSymbolTable
70
1
0
BLOCK_RECORD
5
1F
100
AcDbSymbolTableRecord
100
AcDbBlockTableRecord
2
*MODEL_SPACE
0
BLOCK_RECORD
5
1B
100
AcDbSymbolTableRecord
100
AcDbBlockTableRecord
2
*PAPER_SPACE
0
ENDTAB
0
ENDSEC
0
SECTION
2
BLOCKS
0
BLOCK
5
20
100
AcDbEntity
100
AcDbBlockBegin
2
*MODEL_SPACE
0
ENDBLK
5
21
100
AcDbEntity
100
AcDbBlockEnd
0
BLOCK
5
1C
100
AcDbEntity
100
AcDbBlockBegin
2
*PAPER_SPACE
0
ENDBLK
5
1D
100
AcDbEntity
100
AcDbBlockEnd
0
ENDSEC
0
SECTION
2
ENTITIES
0
LWPOLYLINE
5
100
100
AcDbEntity
8
0
100
AcDbPolyline
90
8
70
1
43
0.0
10
95.5
20
131.24999999999997
42
-0.41421356237309415
10
107.00000000000001
20
119.75
10
107.00000000000001
20
-119.75000000000003
42
-0.41421356237309415
10
95.500000000000028
20
-131.25000000000003
10
-95.499999999999986
20
-131.25000000000003
42
-0.41421356237309548
10
-107
20
-119.75
10
-107.00000000000001
20
119.74999999999996
42
-0.41421356237309503
10
-95.5
20
131.24999999999997
0
LWPOLYLINE
5
101
100
AcDbEntity
8
0
100
AcDbPolyline
90
4
70
1
43
0.0
10
-55.550000000000033
20
-36.749999999999993
10
-27.050000000000001
20
-36.75
10
-27.050000000000001
20
8.7500000000000089
10
-55.549999999999997
20
8.7500000000000142
0
LWPOLYLINE
5
102
100
AcDbEntity
8
0
100
AcDbPolyline
90
4
70
1
43
0.0
10
-14.250000000000011
20
-36.749999999999957
10
14.249999999999989
20
-36.749999999999964
10
14.249999999999996
20
8.7500000000000444
10
-14.25
20
8.7500000000000444
0
LWPOLYLINE
5
103
100
AcDbEntity
8
0
100
AcDbPolyline
90
4
70
1
43
0.0
10
-34.899999999999977
20
85.75
10
-6.3999999999999835
20
85.75
10
-6.3999999999999835
20
114.24999999999997
10
-34.899999999999977
20
114.24999999999997
0
LWPOLYLINE
5
104
100
AcDbEntity
8
0
100
AcDbPolyline
90
4
70
1
43
0.0
10
47.700000000000017
20
85.75
10
76.200000000000017
20
85.75
10
76.200000000000017
20
114.24999999999997
10
47.700000000000017
20
114.24999999999997
0
LWPOLYLINE
5
105
100
AcDbEntity
8
0
100
AcDbPolyline
90
4
70
1
43
0.0
10
-76.199999999999974
20
85.75
10
-47.699999999999974
20
85.75
10
-47.699999999999974
20
114.24999999999997
10
-76.199999999999974
20
114.24999999999997
0
LWPOLYLINE
5
106
100
AcDbEntity
8
0
100
AcDbPolyline
90
4
70
1
43
0.0
10
6.400000000000019
20
85.75
10
34.900000000000013
20
85.75
10
34.900000000000013
20
114.24999999999997
10
6.400000000000019
20
114.24999999999997
0
LWPOLYLINE
5
107
100
AcDbEntity
8
0
100
AcDbPolyline
90
4
70
1
43
0.0
10
47.700000000000038
20
-92.250000000000014
10
76.200000000000074
20
-92.250000000000014
10
76.200000000000074
20
-46.750000000000007
10
47.700000000000038
20
-46.750000000000007
0
LWPOLYLINE
5
108
100
AcDbEntity
8
0
100
AcDbPolyline
90
4
70
1
43
0.0
10
6.3999999999999924
20
-92.250000000000014
10
34.900000000000027
20
-92.250000000000014
10
34.900000000000027
20
-46.750000000000007
10
6.3999999999999924
20
-46.750000000000007
0
LWPOLYLINE
5
109
100
AcDbEntity
8
0
100
AcDbPolyline
90
4
70
1
43
0.0
10
-34.900000000000048
20
-92.250000000000014
10
-6.4000000000000101
20
-92.250000000000014
10
-6.4000000000000101
20
-46.750000000000007
10
-34.900000000000048
20
-46.750000000000007
0
LWPOLYLINE
5
110
100
AcDbEntity
8
0
100
AcDbPolyline
90
4
70
1
43
0.0
10
-76.200000000000074
20
-92.249999999999972
10
-47.700000000000038
20
-92.250000000000014
10
-47.700000000000038
20
-46.750000000000007
10
-76.200000000000074
20
-46.75
0
LWPOLYLINE
5
111
100
AcDbEntity
8
0
100
AcDbPolyline
90
4
70
1
43
0.0
10
27.050000000000018
20
-36.749999999999986
10
55.550000000000011
20
-36.749999999999979
10
55.550000000000011
20
8.7500000000000266
10
27.050000000000001
20
8.7500000000000266
0
ENDSEC
0
SECTION
2
OBJECTS
0
DICTIONARY
5
C
100
AcDbDictionary
3
ACAD_GROUP
350
D
3
ACAD_MLINESTYLE
350
17
0
DICTIONARY
5
D
100
AcDbDictionary
0
DICTIONARY
5
1A
330
C
100
AcDbDictionary
0
DICTIONARY
5
17
100
AcDbDictionary
0
ENDSEC
0
EOF
